HIERARCHY
ROOT root
{
  OFFSET -106.478 93.8535 28.3245
  CHANNELS 6 Xposition Yposition Zposition Zrotation Xrotation Yrotation
  JOINT rfemur
  {
    OFFSET -6.87808 -8.58224 4.63091
    CHANNELS 6 Xposition Yposition Zposition Zrotation Xrotation Yrotation
    JOINT rtibia
    {
      OFFSET 1.05643e-005 -39.9586 0
      CHANNELS 6 Xposition Yposition Zposition Zrotation Xrotation Yrotation
      JOINT rfoot
      {
        OFFSET 0 -32.7363 0
        CHANNELS 6 Xposition Yposition Zposition Zrotation Xrotation Yrotation
        JOINT rtoes
        {
          OFFSET 0 -11.385 -7.56517
          CHANNELS 6 Xposition Yposition Zposition Zrotation Xrotation Yrotation
          End Site
          {
            OFFSET 0 -6.46114 0
          }
        }
      }
    }
  }
  JOINT lfemur
  {
    OFFSET 6.18079 -8.58223 4.6309
    CHANNELS 6 Xposition Yposition Zposition Zrotation Xrotation Yrotation
    JOINT ltibia
    {
      OFFSET -1.0381e-005 -39.2652 0
      CHANNELS 6 Xposition Yposition Zposition Zrotation Xrotation Yrotation
      JOINT lfoot
      {
        OFFSET -0.00334357 -31.3814 0
        CHANNELS 6 Xposition Yposition Zposition Zrotation Xrotation Yrotation
        JOINT ltoes
        {
          OFFSET 0 -9.94555 -8.16007
          CHANNELS 6 Xposition Yposition Zposition Zrotation Xrotation Yrotation
          End Site
          {
            OFFSET 0 -5.95839 0
          }
        }
      }
    }
  }
}
MOTION
Frames:	23
Frame Time:	0.00833333
-106.681 93.8814 28.5726 -9.85406 -1.76426 93.8912 -6.87808 -8.58224 4.63091 -1.25677 -7.50308 -16.8534 1.05643e-005 -39.9586 0 -0 11.2839 0 8.65485e-006 -32.7363 0 132.748 -74.0958 131.635 2.3106e-006 -11.385 -7.56517 0 2.78299e-014 -0 6.18079 -8.58223 4.6309 4.14998 -9.76067 12.1101 -1.0381e-005 -39.2652 0 -0 9.62317 0 -0.00334357 -31.3814 0 -96.7384 -73.1482 -96.4515 -2.72415e-008 -9.94555 -8.16007 0 3.81667e-014 -0 
-106.677 93.8809 28.573 -9.82904 -1.79784 93.8837 -6.87808 -8.58224 4.63091 -1.25247 -7.49197 -16.8633 1.05643e-005 -39.9586 0 -0 11.2769 0 8.65485e-006 -32.7363 0 132.702 -74.0839 131.588 2.3106e-006 -11.385 -7.56517 0 2.78299e-014 -0 6.18079 -8.58223 4.6309 4.15384 -9.75125 12.1148 -1.0381e-005 -39.2652 0 -0 9.62751 0 -0.00334357 -31.3814 0 -96.7624 -73.1513 -96.4747 -2.72415e-008 -9.94555 -8.16007 0 3.81667e-014 -0 
-106.671 93.8803 28.5734 -9.84457 -1.75557 93.8775 -6.87808 -8.58224 4.63091 -1.24439 -7.48111 -16.882 1.05643e-005 -39.9586 0 -0 11.2692 0 8.65485e-006 -32.7363 0 132.627 -74.0667 131.511 2.3106e-006 -11.385 -7.56517 0 2.78299e-014 -0 6.18079 -8.58223 4.6309 4.16179 -9.74294 12.1179 -1.0381e-005 -39.2652 0 -0 9.63481 0 -0.00334357 -31.3814 0 -96.7911 -73.1562 -96.5023 -2.72415e-008 -9.94555 -8.16007 0 3.81667e-014 -0 
-106.665 93.8797 28.5738 -9.83553 -1.7858 93.8783 -6.87808 -8.58224 4.63091 -1.23789 -7.47187 -16.9017 1.05643e-005 -39.9586 0 -0 11.2637 0 8.65485e-006 -32.7363 0 132.553 -74.0486 131.435 2.3106e-006 -11.385 -7.56517 0 2.78299e-014 -0 6.18079 -8.58223 4.6309 4.16816 -9.73445 12.1207 -1.0381e-005 -39.2652 0 -0 9.6404 0 -0.00334357 -31.3814 0 -96.8194 -73.1608 -96.5295 -2.72415e-008 -9.94555 -8.16007 0 3.81667e-014 -0 
-106.655 93.8792 28.5742 -9.84178 -1.78591 93.8627 -6.87808 -8.58224 4.63091 -1.23839 -7.46562 -16.9144 1.05643e-005 -39.9586 0 -0 11.2631 0 8.65485e-006 -32.7363 0 132.513 -74.034 131.392 2.3106e-006 -11.385 -7.56517 0 2.78299e-014 -0 6.18079 -8.58223 4.6309 4.16731 -9.72446 12.1242 -1.0381e-005 -39.2652 0 -0 9.63961 0 -0.00334357 -31.3814 0 -96.8423 -73.1627 -96.5515 -2.72415e-008 -9.94555 -8.16007 0 3.81667e-014 -0 
-106.653 93.8786 28.5747 -9.85739 -1.76966 93.8584 -6.87808 -8.58224 4.63091 -1.25104 -7.46429 -16.9172 1.05643e-005 -39.9586 0 -0 11.2703 0 8.65485e-006 -32.7363 0 132.524 -74.0236 131.402 2.3106e-006 -11.385 -7.56517 0 2.78299e-014 -0 6.18079 -8.58223 4.6309 4.15398 -9.71231 12.1288 -1.0381e-005 -39.2652 0 -0 9.62904 0 -0.00334357 -31.3814 0 -96.8599 -73.1604 -96.5684 -2.72415e-008 -9.94555 -8.16007 0 3.81667e-014 -0 
-106.65 93.8782 28.5751 -9.8602 -1.77058 93.8684 -6.87808 -8.58224 4.63091 -1.27172 -7.46662 -16.9145 1.05643e-005 -39.9586 0 -0 11.2832 0 8.65485e-006 -32.7363 0 132.567 -74.0152 131.443 2.3106e-006 -11.385 -7.56517 0 2.78299e-014 -0 6.18079 -8.58223 4.6309 4.13243 -9.6988 12.1339 -1.0381e-005 -39.2652 0 -0 9.6119 0 -0.00334357 -31.3814 0 -96.8746 -73.1554 -96.5823 -2.72415e-008 -9.94555 -8.16007 0 3.81667e-014 -0 
-106.647 93.8777 28.5756 -9.8286 -1.76461 93.8555 -6.87808 -8.58224 4.63091 -1.29193 -7.46923 -16.91 1.05643e-005 -39.9586 0 -0 11.2968 0 8.65485e-006 -32.7363 0 132.614 -74.0089 131.49 2.3106e-006 -11.385 -7.56517 0 2.78299e-014 -0 6.18079 -8.58223 4.6309 4.11129 -9.68485 12.139 -1.0381e-005 -39.2652 0 -0 9.59345 0 -0.00334357 -31.3814 0 -96.8841 -73.1503 -96.5912 -2.72415e-008 -9.94555 -8.16007 0 3.81667e-014 -0 
-106.631 93.8773 28.576 -9.84205 -1.72804 93.8407 -6.87808 -8.58224 4.63091 -1.30318 -7.46872 -16.9071 1.05643e-005 -39.9586 0 -0 11.3062 0 8.65485e-006 -32.7363 0 132.64 -74.0049 131.515 2.3106e-006 -11.385 -7.56517 0 2.78299e-014 -0 6.18079 -8.58223 4.6309 4.09923 -9.67139 12.1438 -1.0381e-005 -39.2652 0 -0 9.57895 0 -0.00334357 -31.3814 0 -96.8865 -73.1476 -96.5934 -2.72415e-008 -9.94555 -8.16007 0 3.81667e-014 -0 
-106.635 93.8769 28.5765 -9.81045 -1.74312 93.8478 -6.87808 -8.58224 4.63091 -1.30088 -7.46356 -16.9076 1.05643e-005 -39.9586 0 -0 11.3098 0 8.65485e-006 -32.7363 0 132.633 -74.0044 131.507 2.3106e-006 -11.385 -7.56517 0 2.78299e-014 -0 6.18079 -8.58223 4.6309 4.10092 -9.65814 12.1475 -1.0381e-005 -39.2652 0 -0 9.56951 0 -0.00334357 -31.3814 0 -96.8782 -73.1486 -96.5855 -2.72415e-008 -9.94555 -8.16007 0 3.81667e-014 -0 
-106.629 93.8765 28.577 -9.82082 -1.76554 93.8395 -6.87808 -8.58224 4.63091 -1.29034 -7.45578 -16.9092 1.05643e-005 -39.9586 0 -0 11.3102 0 8.65485e-006 -32.7363 0 132.608 -74.0071 131.483 2.3106e-006 -11.385 -7.56517 0 2.78299e-014 -0 6.18079 -8.58223 4.6309 4.11098 -9.64478 12.1507 -1.0381e-005 -39.2652 0 -0 9.56244 0 -0.00334357 -31.3814 0 -96.8612 -73.1517 -96.5693 -2.72415e-008 -9.94555 -8.16007 0 3.81667e-014 -0 
-106.627 93.8761 28.5775 -9.80166 -1.73933 93.842 -6.87808 -8.58224 4.63091 -1.27788 -7.44729 -16.91 1.05643e-005 -39.9586 0 -0 11.3092 0 8.65485e-006 -32.7363 0 132.579 -74.0103 131.455 2.3106e-006 -11.385 -7.56517 0 2.78299e-014 -0 6.18079 -8.58223 4.6309 4.12287 -9.63217 12.1542 -1.0381e-005 -39.2652 0 -0 9.55723 0 -0.00334357 -31.3814 0 -96.8421 -73.1553 -96.5512 -2.72415e-008 -9.94555 -8.16007 0 3.81667e-014 -0 
-106.62 93.8757 28.5781 -9.8164 -1.75492 93.8244 -6.87808 -8.58224 4.63091 -1.26985 -7.44002 -16.9079 1.05643e-005 -39.9586 0 -0 11.3085 0 8.65485e-006 -32.7363 0 132.561 -74.0117 131.437 2.3106e-006 -11.385 -7.56517 0 2.78299e-014 -0 6.18079 -8.58223 4.6309 4.13007 -9.62115 12.1592 -1.0381e-005 -39.2652 0 -0 9.55342 0 -0.00334357 -31.3814 0 -96.8277 -73.1579 -96.5374 -2.72415e-008 -9.94555 -8.16007 0 3.81667e-014 -0 
-106.617 93.8753 28.5786 -9.82228 -1.76077 93.8206 -6.87808 -8.58224 4.63091 -1.26702 -7.43338 -16.8996 1.05643e-005 -39.9586 0 -0 11.3065 0 8.65485e-006 -32.7363 0 132.559 -74.0126 131.435 2.3106e-006 -11.385 -7.56517 0 2.78299e-014 -0 6.18079 -8.58223 4.6309 4.13116 -9.61304 12.1659 -1.0381e-005 -39.2652 0 -0 9.55304 0 -0.00334357 -31.3814 0 -96.8164 -73.1589 -96.5266 -2.72415e-008 -9.94555 -8.16007 0 3.81667e-014 -0 
-106.601 93.875 28.5792 -9.79126 -1.74324 93.7937 -6.87808 -8.58224 4.63091 -1.26631 -7.42671 -16.8873 1.05643e-005 -39.9586 0 -0 11.3029 0 8.65485e-006 -32.7363 0 132.566 -74.0138 131.442 2.3106e-006 -11.385 -7.56517 0 2.78299e-014 -0 6.18079 -8.58223 4.6309 4.1295 -9.60701 12.1737 -1.0381e-005 -39.2652 0 -0 9.55562 0 -0.00334357 -31.3814 0 -96.8059 -73.1594 -96.5166 -2.72415e-008 -9.94555 -8.16007 0 3.81667e-014 -0 
-106.603 93.8746 28.5805 -9.81161 -1.76217 93.7949 -6.87808 -8.58224 4.63091 -1.26829 -7.42183 -16.8764 1.05643e-005 -39.9586 0 -0 11.3015 0 8.65485e-006 -32.7363 0 132.571 -74.0114 131.447 2.3106e-006 -11.385 -7.56517 0 2.78299e-014 -0 6.18079 -8.58223 4.6309 4.12579 -9.60076 12.1824 -1.0381e-005 -39.2652 0 -0 9.55694 0 -0.00334357 -31.3814 0 -96.801 -73.1595 -96.5119 -2.72415e-008 -9.94555 -8.16007 0 3.81667e-014 -0 
-106.606 93.8743 28.5827 -9.80452 -1.73605 93.7925 -6.87808 -8.58224 4.63091 -1.27355 -7.42058 -16.8727 1.05643e-005 -39.9586 0 -0 11.3061 0 8.65485e-006 -32.7363 0 132.566 -74.0018 131.441 2.3106e-006 -11.385 -7.56517 0 2.78299e-014 -0 6.18079 -8.58223 4.6309 4.12074 -9.59199 12.1916 -1.0381e-005 -39.2652 0 -0 9.55276 0 -0.00334357 -31.3814 0 -96.8068 -73.1594 -96.5175 -2.72415e-008 -9.94555 -8.16007 0 3.81667e-014 -0 
-106.602 93.874 28.5853 -9.81842 -1.71663 93.7754 -6.87808 -8.58224 4.63091 -1.28581 -7.42455 -16.8804 1.05643e-005 -39.9586 0 -0 11.3206 0 8.65485e-006 -32.7363 0 132.542 -73.9793 131.413 2.3106e-006 -11.385 -7.56517 0 2.78299e-014 -0 6.18079 -8.58223 4.6309 4.11183 -9.57775 12.202 -1.0381e-005 -39.2652 0 -0 9.5395 0 -0.00334357 -31.3814 0 -96.8348 -73.1593 -96.5443 -2.72415e-008 -9.94555 -8.16007 0 3.81667e-014 -0 
-106.596 93.8737 28.5892 -9.78524 -1.75243 93.7756 -6.87808 -8.58224 4.63091 -1.30357 -7.43239 -16.8955 1.05643e-005 -39.9586 0 -0 11.3421 0 8.65485e-006 -32.7363 0 132.506 -73.9475 131.373 2.3106e-006 -11.385 -7.56517 0 2.78299e-014 -0 6.18079 -8.58223 4.6309 4.09959 -9.56004 12.2136 -1.0381e-005 -39.2652 0 -0 9.52024 0 -0.00334357 -31.3814 0 -96.8789 -73.159 -96.5865 -2.72415e-008 -9.94555 -8.16007 0 3.81667e-014 -0 
-106.586 93.8735 28.59 -9.78759 -1.75431 93.7482 -6.87808 -8.58224 4.63091 -1.31957 -7.44152 -16.9115 1.05643e-005 -39.9586 0 -0 11.3638 0 8.65485e-006 -32.7363 0 132.471 -73.9162 131.334 2.3106e-006 -11.385 -7.56517 0 2.78299e-014 -0 6.18079 -8.58223 4.6309 4.08924 -9.54401 12.2246 -1.0381e-005 -39.2652 0 -0 9.50073 0 -0.00334357 -31.3814 0 -96.9177 -73.1584 -96.6237 -2.72415e-008 -9.94555 -8.16007 0 3.81667e-014 -0 
-106.583 93.8733 28.5907 -9.81212 -1.70712 93.749 -6.87808 -8.58224 4.63091 -1.3265 -7.44935 -16.9216 1.05643e-005 -39.9586 0 -0 11.3791 0 8.65485e-006 -32.7363 0 132.447 -73.8954 131.307 2.3106e-006 -11.385 -7.56517 0 2.78299e-014 -0 6.18079 -8.58223 4.6309 4.08603 -9.53478 12.2336 -1.0381e-005 -39.2652 0 -0 9.48675 0 -0.00334357 -31.3814 0 -96.9298 -73.1576 -96.6352 -2.72415e-008 -9.94555 -8.16007 0 3.81667e-014 -0 
-106.58 93.8731 28.5914 -9.81132 -1.73116 93.7502 -6.87808 -8.58224 4.63091 -1.31916 -7.4561 -16.9232 1.05643e-005 -39.9586 0 -0 11.385 0 8.65485e-006 -32.7363 0 132.436 -73.8897 131.295 2.3106e-006 -11.385 -7.56517 0 2.78299e-014 -0 6.18079 -8.58223 4.6309 4.09416 -9.53629 12.2402 -1.0381e-005 -39.2652 0 -0 9.48081 0 -0.00334357 -31.3814 0 -96.8986 -73.1563 -96.6053 -2.72415e-008 -9.94555 -8.16007 0 3.81667e-014 -0 
-106.577 93.8729 28.592 -9.82314 -1.7463 93.7295 -6.87808 -8.58224 4.63091 -1.30251 -7.46284 -16.9203 1.05643e-005 -39.9586 0 -0 11.3855 0 8.65485e-006 -32.7363 0 132.433 -73.8933 131.293 2.3106e-006 -11.385 -7.56517 0 2.78299e-014 -0 6.18079 -8.58223 4.6309 4.10991 -9.54496 12.2453 -1.0381e-005 -39.2652 0 -0 9.4795 0 -0.00334357 -31.3814 0 -96.8393 -73.1546 -96.5484 -2.72415e-008 -9.94555 -8.16007 0 3.81667e-014 -0 
